<?xml version="1.0" encoding="UTF-8" standalone="no"?>
<!-- Created with Inkscape (http://www.inkscape.org/) -->

<svg
   xmlns:dc="http://purl.org/dc/elements/1.1/"
   xmlns:cc="http://creativecommons.org/ns#"
   xmlns:rdf="http://www.w3.org/1999/02/22-rdf-syntax-ns#"
   xmlns:svg="http://www.w3.org/2000/svg"
   xmlns="http://www.w3.org/2000/svg"
   xmlns:sodipodi="http://sodipodi.sourceforge.net/DTD/sodipodi-0.dtd"
   xmlns:inkscape="http://www.inkscape.org/namespaces/inkscape"
   version="1.0"
   width="468pt"
   height="473pt"
   viewBox="0 0 468 473"
   id="svg3209"
   inkscape:version="0.92.2 5c3e80d, 2017-08-06"
   sodipodi:docname="Brady.svg">
  <sodipodi:namedview
     pagecolor="#ffffff"
     bordercolor="#666666"
     borderopacity="1"
     objecttolerance="10"
     gridtolerance="10"
     guidetolerance="10"
     inkscape:pageopacity="0"
     inkscape:pageshadow="2"
     inkscape:window-width="2560"
     inkscape:window-height="1396"
     id="namedview3053"
     showgrid="false"
     inkscape:zoom="1.8488372"
     inkscape:cx="312"
     inkscape:cy="315.33333"
     inkscape:window-x="2560"
     inkscape:window-y="0"
     inkscape:window-maximized="1"
     inkscape:current-layer="svg3209" />
  <defs
     id="defs3237" />
  <metadata
     id="metadata3211">
Created by potrace 1.5, written by Peter Selinger 2001-2004
<rdf:RDF>
  <cc:Work
     rdf:about="">
    <dc:format>image/svg+xml</dc:format>
    <dc:type
       rdf:resource="http://purl.org/dc/dcmitype/StillImage" />
    <dc:title />
  </cc:Work>
</rdf:RDF>
</metadata>
  <g
     transform="matrix(0.051148,0,0,-0.051148,0,473)"
     id="g3213"
     style="fill:#ffd420;fill-opacity:1">
    <path
       d="m 3375,9209 c -168,-20 -319,-54 -430,-97 -85,-32 -179,-82 -210,-110 -35,-31 -140,-154 -200,-233 -105,-138 -194,-213 -337,-285 -126,-63 -434,-283 -613,-438 -101,-87 -407,-395 -502,-506 C 860,7280 677,7002 502,6657 250,6161 102,5649 33,5040 9,4825 9,4336 33,4125 111,3458 278,2921 585,2355 c 27,-49 61,-109 77,-132 15,-23 28,-44 28,-48 0,-11 162,-247 243,-354 184,-243 453,-530 672,-717 260,-223 597,-445 913,-603 409,-205 717,-309 1197,-406 331,-66 610,-90 974,-82 314,7 410,16 671,63 511,93 888,217 1317,435 514,260 951,600 1336,1039 619,706 995,1578 1104,2560 24,223 24,668 0,895 -61,551 -191,1021 -429,1545 -45,98 -184,351 -259,472 -325,518 -827,1035 -1324,1361 -226,148 -677,384 -815,426 -232,71 -459,119 -650,137 -212,20 -356,5 -415,-42 -25,-20 -30,-31 -30,-68 0,-54 25,-92 82,-124 51,-28 185,-75 295,-102 45,-12 164,-48 262,-82 294,-98 498,-191 735,-333 319,-191 533,-357 787,-610 466,-465 791,-1000 988,-1630 55,-176 116,-453 136,-615 5,-47 12,-96 15,-110 3,-14 11,-125 17,-247 30,-576 -48,-1085 -244,-1603 -59,-157 -198,-445 -277,-575 -23,-37 -41,-69 -41,-71 0,-7 -156,-241 -213,-319 -273,-375 -545,-639 -897,-873 -459,-304 -986,-535 -1395,-611 -321,-60 -713,-96 -950,-87 -229,8 -535,43 -765,87 -430,81 -938,304 -1406,616 -94,62 -216,150 -270,195 -455,377 -855,927 -1124,1543 -142,325 -225,639 -280,1050 -18,129 -24,581 -11,759 25,340 94,680 204,1001 32,94 181,434 249,569 39,77 182,294 266,406 310,407 710,792 1067,1025 159,104 181,109 565,111 292,2 309,3 405,28 413,106 747,340 824,578 12,36 13,37 76,43 108,12 184,-4 431,-93 61,-22 132,-49 159,-61 57,-25 67,-22 28,9 -46,36 -253,224 -253,230 0,3 56,57 125,119 69,63 125,118 125,122 0,4 -39,-10 -87,-33 -185,-85 -362,-128 -529,-128 l -91,0 -54,50 c -67,63 -171,115 -267,135 -81,16 -382,19 -507,4 z"
       id="path3215"
       style="fill:#ffd420;fill-opacity:1" />
    <path
       d="m 5361,8510 c -180,-48 -294,-184 -271,-324 5,-30 13,-64 19,-74 17,-33 77,-79 125,-97 40,-15 45,-21 40,-39 -17,-56 -207,-636 -220,-673 l -16,-43 -481,0 c -571,0 -756,-10 -1182,-67 -215,-28 -449,-72 -545,-103 -103,-33 -305,-137 -390,-201 -138,-104 -195,-195 -206,-332 -15,-177 66,-323 248,-442 84,-56 160,-95 182,-95 10,0 29,-6 45,-14 65,-34 421,-124 671,-170 580,-107 1514,-119 2315,-30 247,27 647,107 848,170 61,19 136,41 165,49 167,47 379,212 441,345 23,48 26,68 26,160 0,97 -3,110 -32,172 -41,88 -79,133 -161,195 -161,121 -352,204 -567,247 -139,27 -900,97 -1054,96 -22,0 -23,3 -17,38 5,35 192,647 202,663 2,4 27,12 54,18 57,12 119,41 168,79 61,46 92,140 78,234 -15,98 -148,216 -267,236 -122,21 -143,22 -218,2 z M 4926,6947 c 9,-9 4,-27 -153,-502 -68,-209 -130,-386 -137,-393 -9,-9 -85,-12 -319,-12 -415,-1 -599,15 -937,76 -187,34 -485,112 -545,142 -86,43 -164,101 -205,153 -33,42 -40,59 -40,95 0,161 220,295 595,365 235,43 265,48 381,59 65,6 198,15 294,19 225,10 1056,8 1066,-2 z m 644,-12 c 213,-7 434,-21 535,-34 39,-5 108,-15 155,-21 103,-13 272,-62 358,-102 40,-19 86,-53 131,-97 60,-59 70,-75 76,-114 13,-88 -58,-195 -170,-256 -203,-109 -1128,-261 -1598,-261 l -87,0 6,28 c 3,15 35,119 69,232 35,113 70,228 78,255 42,139 110,352 119,368 8,16 19,17 76,13 37,-3 150,-8 252,-11 z"
       id="path3217"
       style="fill:#ffd420;fill-opacity:1" />
    <path
       d="m 2042,5824 c -67,-18 -97,-33 -150,-79 -79,-69 -115,-170 -115,-325 1,-162 44,-274 144,-371 61,-60 140,-99 203,-99 98,0 194,62 257,165 19,32 43,68 54,81 l 20,25 125,-17 c 209,-27 191,-17 218,-109 13,-44 49,-184 82,-310 128,-507 186,-861 204,-1255 l 3,-55 89,-12 c 117,-15 491,-50 674,-63 240,-17 931,-23 1250,-11 318,12 988,65 1002,79 5,5 17,103 28,218 26,267 58,464 121,739 51,221 142,567 180,681 l 20,61 91,12 c 50,7 125,15 167,18 l 76,6 30,-63 c 60,-127 119,-180 229,-205 89,-21 211,25 277,104 51,62 108,188 120,270 21,140 -14,301 -86,395 -62,82 -194,129 -292,105 -92,-23 -145,-73 -222,-211 -32,-56 -32,-56 -94,-66 -101,-17 -177,-25 -177,-18 0,9 47,159 71,224 21,60 20,61 -57,37 -75,-22 -284,-72 -450,-105 -472,-96 -1039,-137 -1739,-126 -529,8 -739,23 -1043,76 -179,31 -501,108 -706,169 -38,11 -72,18 -75,16 -3,-3 16,-66 42,-140 25,-74 43,-136 39,-139 -4,-2 -50,2 -102,10 -52,7 -100,14 -107,14 -6,0 -32,37 -57,83 -57,105 -123,170 -197,191 -63,19 -78,19 -147,0 z"
       id="path3219"
       style="fill:#ffd420;fill-opacity:1" />
    <path
       d="m 3097,3273 c -4,-3 -7,-36 -7,-72 0,-36 -7,-120 -15,-186 -8,-66 -15,-134 -15,-150 l 0,-31 258,-23 c 141,-12 298,-27 347,-31 387,-38 1455,-39 1905,-1 468,39 551,48 560,57 6,6 6,40 0,90 -9,70 -17,202 -19,313 l -1,34 -92,-6 c -51,-4 -167,-13 -258,-21 -586,-53 -1307,-66 -1825,-33 -250,16 -678,50 -786,62 -25,3 -48,2 -52,-2 z"
       id="path3221"
       style="fill:#ffd420;fill-opacity:1" />
    <path
       d="m 7042,2770 c -11,-11 -31,-62 -46,-113 -53,-177 -81,-257 -91,-258 -5,-1 -54,63 -107,142 -144,214 -124,196 -205,188 -152,-17 -183,-22 -183,-33 0,-6 23,-42 50,-81 27,-39 103,-150 169,-248 106,-156 121,-183 121,-220 1,-50 36,-326 43,-333 9,-10 207,4 225,15 7,4 2,66 -14,176 -36,258 -43,216 81,510 37,88 77,186 90,218 l 24,57 -69,0 c -57,0 -73,-4 -88,-20 z"
       id="path3223"
       style="fill:#ffd420;fill-opacity:1" />
    <path
       d="m 2440,2761 c -80,-26 -129,-53 -181,-103 -60,-56 -93,-110 -125,-205 -24,-70 -26,-88 -21,-183 6,-140 37,-220 116,-299 31,-31 79,-68 106,-83 73,-39 200,-68 292,-68 85,1 208,21 224,37 11,11 50,153 43,153 -3,0 -34,-19 -70,-41 -52,-33 -78,-43 -129,-48 -129,-14 -234,28 -296,117 -44,63 -59,122 -59,235 0,179 66,313 184,375 43,22 64,27 131,27 73,0 85,-3 138,-33 31,-19 73,-54 91,-78 19,-25 37,-41 40,-36 8,14 36,124 36,143 0,20 -88,58 -206,89 -98,25 -235,26 -314,1 z"
       id="path3225"
       style="fill:#ffd420;fill-opacity:1" />
    <path
       d="m 5815,2679 c -99,-11 -186,-22 -194,-24 -10,-4 -12,-16 -7,-48 4,-23 11,-109 16,-192 14,-236 40,-596 46,-643 l 5,-43 117,6 c 64,4 177,13 251,21 112,12 146,20 205,48 176,82 266,229 268,436 0,72 -5,111 -21,160 -26,78 -77,159 -124,194 -49,38 -154,83 -222,95 -76,14 -122,13 -340,-10 z m 305,-127 c 69,-34 113,-90 141,-184 31,-100 24,-267 -14,-348 -49,-107 -128,-159 -258,-167 -69,-5 -77,-4 -83,13 -3,11 -13,111 -21,224 -8,113 -20,265 -26,339 -6,73 -7,136 -4,139 10,11 115,20 165,15 25,-3 70,-17 100,-31 z"
       id="path3227"
       style="fill:#ffd420;fill-opacity:1" />
    <path
       d="m 3370,2615 c 0,-69 -31,-557 -45,-710 -11,-116 -12,-161 -4,-166 13,-7 175,-14 339,-14 85,0 114,4 151,21 110,51 169,157 148,268 -13,71 -44,111 -117,149 l -63,34 66,38 c 83,49 125,107 125,175 0,89 -30,141 -105,185 -55,32 -132,44 -327,49 l -168,4 0,-33 z m 331,-76 c 41,-21 63,-131 38,-196 -5,-15 -27,-45 -47,-65 -31,-33 -42,-38 -80,-38 l -44,0 6,48 c 3,26 8,92 12,147 3,55 11,106 16,113 11,13 66,8 99,-9 z m -37,-397 c 71,-41 94,-134 57,-232 -27,-70 -67,-100 -135,-100 l -48,0 5,43 c 4,23 9,87 12,142 3,55 8,117 11,138 6,37 7,38 37,32 18,-4 45,-14 61,-23 z"
       id="path3229"
       style="fill:#ffd420;fill-opacity:1" />
    <path
       d="m 4056,2618 c -3,-7 -7,-218 -10,-469 l -6,-457 107,-4 c 60,-2 111,0 114,5 4,5 5,81 3,170 -2,89 0,175 5,192 l 8,30 24,-39 c 13,-22 60,-107 104,-190 57,-107 87,-154 105,-162 14,-7 91,-13 175,-15 l 149,-4 33,90 c 68,186 62,174 96,179 18,3 98,7 178,10 l 147,5 41,-107 c 23,-59 45,-114 50,-122 7,-12 28,-14 112,-11 57,1 108,6 112,10 4,4 -15,64 -43,132 -50,121 -193,485 -260,661 l -32,87 -113,0 -112,0 -23,-67 c -29,-87 -221,-615 -258,-712 -16,-41 -33,-75 -38,-77 -9,-3 -121,176 -199,319 -34,62 -35,68 -18,74 106,37 156,82 174,157 33,138 -35,263 -163,302 -72,22 -456,33 -462,13 z m 318,-102 c 72,-30 107,-139 72,-229 -25,-66 -55,-89 -123,-95 l -56,-5 6,163 c 4,89 10,166 13,171 8,13 50,11 88,-5 z m 778,-211 c 74,-183 91,-236 82,-245 -5,-5 -64,-12 -132,-16 l -122,-7 0,24 c 0,22 101,326 116,351 8,13 7,15 56,-107 z"
       id="path3231"
       style="fill:#ffd420;fill-opacity:1" />
    <path
       d="m 2910,2406 c -73,-40 -102,-197 -48,-267 34,-45 95,-74 140,-65 52,10 98,43 115,84 35,83 4,215 -58,247 -35,19 -116,19 -149,1 z"
       id="path3233"
       style="fill:#ffd420;fill-opacity:1" />
  </g>
</svg>
