{
    "asset" : {
        "generator" : "Khronos glTF Blender I/O v1.3.48",
        "version" : "2.0"
    },
    "extensionsUsed" : [
        "KHR_texture_transform"
    ],
    "extensionsRequired" : [
        "KHR_texture_transform"
    ],
    "scene" : 0,
    "scenes" : [
        {
            "extras" : {
                "muv_uv_bounding_box_enabled" : 0,
                "csm_export" : {
                    "name" : "OE-SOE Schoeffel",
                    "description" : "Kubicek BB45Z",
                    "attribution" : "lifted from https://github.com/AnalyticalGraphicsInc/cesium/tree/master/Apps/SampleData/models/CesiumBalloon",
                    "source_type" : 1
                },
                "glTF2ExportSettings" : {
                    "export_apply" : 1,
                    "export_copyright" : "",
                    "export_extras" : 1,
                    "export_format" : "GLTF_EMBEDDED",
                    "export_tangents" : 1
                }
            },
            "name" : "Scene",
            "nodes" : [
                0,
                1,
                2,
                3,
                4,
                5,
                6,
                7
            ]
        }
    ],
    "nodes" : [
        {
            "name" : "Light",
            "rotation" : [
                0.16907575726509094,
                0.7558803558349609,
                -0.27217137813568115,
                0.570947527885437
            ],
            "translation" : [
                4.076245307922363,
                5.903861999511719,
                -1.0054539442062378
            ]
        },
        {
            "name" : "Camera",
            "rotation" : [
                0.483536034822464,
                0.33687159419059753,
                -0.20870360732078552,
                0.7804827094078064
            ],
            "translation" : [
                7.358891487121582,
                4.958309173583984,
                6.925790786743164
            ]
        },
        {
            "mesh" : 0,
            "name" : "Balloon",
            "scale" : [
                0.5182574391365051,
                0.48414793610572815,
                -0.4912775158882141
            ]
        },
        {
            "mesh" : 1,
            "name" : "Basket"
        },
        {
            "mesh" : 2,
            "name" : "Basket_top_edge",
            "rotation" : [
                0,
                0,
                -0.7071067690849304,
                0.7071068286895752
            ]
        },
        {
            "mesh" : 3,
            "name" : "FlameSupports"
        },
        {
            "mesh" : 4,
            "name" : "Plane"
        },
        {
            "mesh" : 5,
            "name" : "Black_ropes",
            "translation" : [
                1.272887945175171,
                1.5507559776306152,
                0
            ]
        }
    ],
    "materials" : [
        {
            "doubleSided" : true,
            "emissiveFactor" : [
                0,
                0,
                0
            ],
            "name" : "Material",
            "pbrMetallicRoughness" : {
                "baseColorTexture" : {
                    "index" : 0,
                    "texCoord" : 0
                },
                "metallicFactor" : 0,
                "roughnessFactor" : 0.4000000059604645
            }
        },
        {
            "doubleSided" : true,
            "emissiveFactor" : [
                0,
                0,
                0
            ],
            "name" : "Basket_Material",
            "pbrMetallicRoughness" : {
                "baseColorTexture" : {
                    "extensions" : {
                        "KHR_texture_transform" : {
                            "scale" : [
                                1.0000001192092896,
                                1
                            ]
                        }
                    },
                    "index" : 1,
                    "texCoord" : 0
                },
                "metallicFactor" : 0,
                "roughnessFactor" : 0.5
            }
        },
        {
            "doubleSided" : true,
            "emissiveFactor" : [
                0,
                0,
                0
            ],
            "name" : "Pipes",
            "pbrMetallicRoughness" : {
                "baseColorFactor" : [
                    0.2674582004547119,
                    0.06383057683706284,
                    0.009563954547047615,
                    1
                ],
                "metallicFactor" : 0,
                "roughnessFactor" : 0.5
            }
        },
        {
            "doubleSided" : true,
            "emissiveFactor" : [
                0,
                0,
                0
            ],
            "name" : "FlameGrate",
            "pbrMetallicRoughness" : {
                "baseColorTexture" : {
                    "index" : 2,
                    "texCoord" : 0
                },
                "metallicFactor" : 0,
                "roughnessFactor" : 0.5
            }
        },
        {
            "doubleSided" : true,
            "emissiveFactor" : [
                0,
                0,
                0
            ],
            "name" : "Black",
            "pbrMetallicRoughness" : {
                "baseColorFactor" : [
                    0,
                    0,
                    0,
                    1
                ],
                "metallicFactor" : 0,
                "roughnessFactor" : 0.5
            }
        }
    ],
    "meshes" : [
        {
            "name" : "BalloonMesh",
            "primitives" : [
                {
                    "attributes" : {
                        "POSITION" : 0,
                        "NORMAL" : 1,
                        "TANGENT" : 2,
                        "TEXCOORD_0" : 3
                    },
                    "indices" : 4,
                    "material" : 0
                }
            ]
        },
        {
            "name" : "Basket mesh",
            "primitives" : [
                {
                    "attributes" : {
                        "POSITION" : 5,
                        "NORMAL" : 6,
                        "TANGENT" : 7,
                        "TEXCOORD_0" : 8
                    },
                    "indices" : 9,
                    "material" : 1
                }
            ]
        },
        {
            "name" : "Basket top edge mesh",
            "primitives" : [
                {
                    "attributes" : {
                        "POSITION" : 10,
                        "NORMAL" : 11
                    },
                    "indices" : 12,
                    "material" : 2
                }
            ]
        },
        {
            "name" : "FlameSupportMesh",
            "primitives" : [
                {
                    "attributes" : {
                        "POSITION" : 13,
                        "NORMAL" : 14
                    },
                    "indices" : 15,
                    "material" : 2
                }
            ]
        },
        {
            "name" : "Plane",
            "primitives" : [
                {
                    "attributes" : {
                        "POSITION" : 16,
                        "NORMAL" : 17,
                        "TANGENT" : 18,
                        "TEXCOORD_0" : 19
                    },
                    "indices" : 20,
                    "material" : 3
                }
            ]
        },
        {
            "name" : "Black ropes mesh",
            "primitives" : [
                {
                    "attributes" : {
                        "POSITION" : 21,
                        "NORMAL" : 22
                    },
                    "indices" : 23,
                    "material" : 4
                }
            ]
        }
    ],
    "textures" : [
        {
            "source" : 0
        },
        {
            "source" : 1
        },
        {
            "source" : 2
        }
    ],
    "images" : [
        {
            "bufferView" : 5,
            "mimeType" : "image/png",
            "name" : "OE-SOX-graphic-3x4"
        },
        {
            "bufferView" : 11,
            "mimeType" : "image/jpeg",
            "name" : "WickerRepeat"
        },
        {
            "bufferView" : 23,
            "mimeType" : "image/png",
            "name" : "FlameGrate"
        }
    ],
    "accessors" : [
        {
            "bufferView" : 0,
            "componentType" : 5126,
            "count" : 2145,
            "max" : [
                12.402509689331055,
                28.87173843383789,
                12.402509689331055
            ],
            "min" : [
                -12.402509689331055,
                2.65847110748291,
                -12.402509689331055
            ],
            "type" : "VEC3"
        },
        {
            "bufferView" : 1,
            "componentType" : 5126,
            "count" : 2145,
            "type" : "VEC3"
        },
        {
            "bufferView" : 2,
            "componentType" : 5126,
            "count" : 2145,
            "type" : "VEC4"
        },
        {
            "bufferView" : 3,
            "componentType" : 5126,
            "count" : 2145,
            "type" : "VEC2"
        },
        {
            "bufferView" : 4,
            "componentType" : 5123,
            "count" : 10368,
            "type" : "SCALAR"
        },
        {
            "bufferView" : 6,
            "componentType" : 5126,
            "count" : 3433,
            "max" : [
                0.6000002026557922,
                -0.7384774088859558,
                0.9600003957748413
            ],
            "min" : [
                -0.6000003218650818,
                -1.7000000476837158,
                -0.9600003361701965
            ],
            "type" : "VEC3"
        },
        {
            "bufferView" : 7,
            "componentType" : 5126,
            "count" : 3433,
            "type" : "VEC3"
        },
        {
            "bufferView" : 8,
            "componentType" : 5126,
            "count" : 3433,
            "type" : "VEC4"
        },
        {
            "bufferView" : 9,
            "componentType" : 5126,
            "count" : 3433,
            "type" : "VEC2"
        },
        {
            "bufferView" : 10,
            "componentType" : 5123,
            "count" : 13038,
            "type" : "SCALAR"
        },
        {
            "bufferView" : 12,
            "componentType" : 5126,
            "count" : 2022,
            "max" : [
                0.8951036930084229,
                0.6591187119483948,
                1.0199960470199585
            ],
            "min" : [
                0.6784793138504028,
                -0.6591334939002991,
                -1.0199979543685913
            ],
            "type" : "VEC3"
        },
        {
            "bufferView" : 13,
            "componentType" : 5126,
            "count" : 2022,
            "type" : "VEC3"
        },
        {
            "bufferView" : 14,
            "componentType" : 5123,
            "count" : 12132,
            "type" : "SCALAR"
        },
        {
            "bufferView" : 15,
            "componentType" : 5126,
            "count" : 600,
            "max" : [
                0.6223739981651306,
                0.42929860949516296,
                0.8950566053390503
            ],
            "min" : [
                -0.6223739981651306,
                -0.7549619078636169,
                -0.8950566053390503
            ],
            "type" : "VEC3"
        },
        {
            "bufferView" : 16,
            "componentType" : 5126,
            "count" : 600,
            "type" : "VEC3"
        },
        {
            "bufferView" : 17,
            "componentType" : 5123,
            "count" : 3456,
            "type" : "SCALAR"
        },
        {
            "bufferView" : 18,
            "componentType" : 5126,
            "count" : 262,
            "max" : [
                0.22999998927116394,
                0.4912322163581848,
                0.22999998927116394
            ],
            "min" : [
                -0.22999998927116394,
                0.3999999165534973,
                -0.22999998927116394
            ],
            "type" : "VEC3"
        },
        {
            "bufferView" : 19,
            "componentType" : 5126,
            "count" : 262,
            "type" : "VEC3"
        },
        {
            "bufferView" : 20,
            "componentType" : 5126,
            "count" : 262,
            "type" : "VEC4"
        },
        {
            "bufferView" : 21,
            "componentType" : 5126,
            "count" : 262,
            "type" : "VEC2"
        },
        {
            "bufferView" : 22,
            "componentType" : 5123,
            "count" : 390,
            "type" : "SCALAR"
        },
        {
            "bufferView" : 24,
            "componentType" : 5126,
            "count" : 288,
            "max" : [
                0.005840419791638851,
                0.005231260787695646,
                1.2787280082702637
            ],
            "min" : [
                -2.5516159534454346,
                -1.1574020385742188,
                -1.2787280082702637
            ],
            "type" : "VEC3"
        },
        {
            "bufferView" : 25,
            "componentType" : 5126,
            "count" : 288,
            "type" : "VEC3"
        },
        {
            "bufferView" : 26,
            "componentType" : 5123,
            "count" : 288,
            "type" : "SCALAR"
        }
    ],
    "bufferViews" : [
        {
            "buffer" : 0,
            "byteLength" : 25740,
            "byteOffset" : 0
        },
        {
            "buffer" : 0,
            "byteLength" : 25740,
            "byteOffset" : 25740
        },
        {
            "buffer" : 0,
            "byteLength" : 34320,
            "byteOffset" : 51480
        },
        {
            "buffer" : 0,
            "byteLength" : 17160,
            "byteOffset" : 85800
        },
        {
            "buffer" : 0,
            "byteLength" : 20736,
            "byteOffset" : 102960
        },
        {
            "buffer" : 0,
            "byteLength" : 43326,
            "byteOffset" : 123696
        },
        {
            "buffer" : 0,
            "byteLength" : 41196,
            "byteOffset" : 167024
        },
        {
            "buffer" : 0,
            "byteLength" : 41196,
            "byteOffset" : 208220
        },
        {
            "buffer" : 0,
            "byteLength" : 54928,
            "byteOffset" : 249416
        },
        {
            "buffer" : 0,
            "byteLength" : 27464,
            "byteOffset" : 304344
        },
        {
            "buffer" : 0,
            "byteLength" : 26076,
            "byteOffset" : 331808
        },
        {
            "buffer" : 0,
            "byteLength" : 294540,
            "byteOffset" : 357884
        },
        {
            "buffer" : 0,
            "byteLength" : 24264,
            "byteOffset" : 652424
        },
        {
            "buffer" : 0,
            "byteLength" : 24264,
            "byteOffset" : 676688
        },
        {
            "buffer" : 0,
            "byteLength" : 24264,
            "byteOffset" : 700952
        },
        {
            "buffer" : 0,
            "byteLength" : 7200,
            "byteOffset" : 725216
        },
        {
            "buffer" : 0,
            "byteLength" : 7200,
            "byteOffset" : 732416
        },
        {
            "buffer" : 0,
            "byteLength" : 6912,
            "byteOffset" : 739616
        },
        {
            "buffer" : 0,
            "byteLength" : 3144,
            "byteOffset" : 746528
        },
        {
            "buffer" : 0,
            "byteLength" : 3144,
            "byteOffset" : 749672
        },
        {
            "buffer" : 0,
            "byteLength" : 4192,
            "byteOffset" : 752816
        },
        {
            "buffer" : 0,
            "byteLength" : 2096,
            "byteOffset" : 757008
        },
        {
            "buffer" : 0,
            "byteLength" : 780,
            "byteOffset" : 759104
        },
        {
            "buffer" : 0,
            "byteLength" : 916,
            "byteOffset" : 759884
        },
        {
            "buffer" : 0,
            "byteLength" : 3456,
            "byteOffset" : 760800
        },
        {
            "buffer" : 0,
            "byteLength" : 3456,
            "byteOffset" : 764256
        },
        {
            "buffer" : 0,
            "byteLength" : 576,
            "byteOffset" : 767712
        }
    ],
    "buffers" : [
        {
            "byteLength" : 768288,
            "uri" : "data:application/octet-stream;base64,"
        }
    ]
}
