<?xml version="1.0" encoding="UTF-8" standalone="no"?>
<!-- Created with Inkscape (http://www.inkscape.org/) -->
<svg
   xmlns:svg="http://www.w3.org/2000/svg"
   xmlns="http://www.w3.org/2000/svg"
   version="1.0"
   width="960.94977"
   height="202.612"
   id="svg4708">
  <defs
     id="defs4710">
    <clipPath
       id="clipPath951">
      <path
         d="M 3640.12,5667.35 L 4244.35,5667.35 L 4244.35,5539.24 L 3640.12,5539.24 L 3640.12,5667.35"
         id="path953" />
    </clipPath>
    <clipPath
       id="clipPath961">
      <path
         d="M 0,0 L 0,5906 L 4488,5906 L 4488,0 L 0,0 z"
         id="path963" />
    </clipPath>
    <clipPath
       id="clipPath1099">
      <path
         d="M 3640.12,5667.35 L 4244.35,5667.35 L 4244.35,5539.24 L 3640.12,5539.24 L 3640.12,5667.35"
         id="path1101" />
    </clipPath>
    <clipPath
       id="clipPath1109">
      <path
         d="M 0,0 L 0,5906 L 4488,5906 L 4488,0 L 0,0 z"
         id="path1111" />
    </clipPath>
  </defs>
  <path
     d="M 324.7414,30.69758 C 324.77325,30.8887 306.41045,49.37891 306.47415,49.20373 C 297.12552,43.96404 286.88503,38.7562 274.94045,41.57512 C 269.71668,42.7218 264.26995,46.14591 262.75697,51.59264 C 261.88103,57.03937 264.26995,62.04017 268.63371,65.2891 C 287.76097,79.65445 320.39357,80.7215 325.39437,110.08926 C 327.35328,127.4965 319.08763,142.4989 305.16821,152.72346 C 284.94205,167.08881 252.75537,163.60099 232.95921,150.76455 C 228.16545,147.27673 222.95762,143.37483 219.4698,138.15107 L 238.31039,119.53344 C 249.84089,129.74208 265.79886,137.29106 281.02422,130.31542 C 285.59502,128.57947 289.73581,123.80164 289.94285,118.57787 C 290.80286,111.84113 285.80206,106.61736 280.37125,103.14547 C 260.57509,93.78092 229.69436,86.82121 227.52841,58.7594 C 227.06655,43.96404 233.38922,30.49054 246.44863,22.6549 C 264.92292,11.77736 292.5388,10.26438 311.47495,20.91895 C 316.25278,23.7538 320.82358,26.57272 324.7414,30.69758"
     id="path965"
     style="fill:#005aaa;fill-opacity:1;fill-rule:nonzero;stroke:none" />
  <path
     d="M 324.7414,30.69758 C 324.77325,30.8887 306.41045,49.37891 306.47415,49.20373 C 297.12552,43.96404 286.88503,38.7562 274.94045,41.57512 C 269.71668,42.7218 264.26995,46.14591 262.75697,51.59264 C 261.88103,57.03937 264.26995,62.04017 268.63371,65.2891 C 287.76097,79.65445 320.39357,80.7215 325.39437,110.08926 C 327.35328,127.4965 319.08763,142.4989 305.16821,152.72346 C 284.94205,167.08881 252.75537,163.60099 232.95921,150.76455 C 228.16545,147.27673 222.95762,143.37483 219.4698,138.15107 L 238.31039,119.53344 C 249.84089,129.74208 265.79886,137.29106 281.02422,130.31542 C 285.59502,128.57947 289.73581,123.80164 289.94285,118.57787 C 290.80286,111.84113 285.80206,106.61736 280.37125,103.14547 C 260.57509,93.78092 229.69436,86.82121 227.52841,58.7594 C 227.06655,43.96404 233.38922,30.49054 246.44863,22.6549 C 264.92292,11.77736 292.5388,10.26438 311.47495,20.91895 C 316.25278,23.7538 320.82358,26.57272 324.7414,30.69758 z"
     id="path967"
     style="fill:none;stroke:#005aaa;stroke-width:0.23889171;stroke-linecap:butt;stroke-linejoin:miter;stroke-miterlimit:4;stroke-dasharray:none;stroke-opacity:1" />
  <path
     d="M 459.76298,65.2891 C 471.29349,55.2875 490.03852,51.79968 504.18091,58.32939 C 513.3225,62.45425 518.54627,72.02585 519.62924,81.61337 L 519.83628,156.64128 L 487.42664,160.98911 L 487.49035,95.32575 C 487.49035,89.89495 483.52474,85.30822 478.50802,83.55635 C 474.17612,82.26634 468.72939,82.71227 465.03453,85.30822 C 461.76967,87.71307 459.76298,90.2931 459.81076,94.43389 L 459.5878,156.64128 L 427.40112,161.19615 L 427.40112,25.45789 L 459.76298,20.42524 L 459.76298,65.2891"
     id="path969"
     style="fill:#005aaa;fill-opacity:1;fill-rule:nonzero;stroke:none" />
  <path
     d="M 726.70056,21.36488 C 729.72652,30.06054 732.56137,38.7562 735.38029,47.45186 C 725.60166,49.20373 708.78368,46.65555 707.98738,57.81975 C 707.90775,58.69569 707.95552,58.32939 708.38553,58.7594 L 744.52188,58.7594 C 745.60486,52.67562 744.29891,45.2859 747.57969,40.06214 C 756.25942,22.01785 776.48559,20.26598 795.19877,21.57192 C 798.01769,30.28351 801.07551,38.7562 803.68739,47.67482 C 794.11579,48.77372 777.44115,46.38481 776.64485,57.67642 C 776.77226,58.7594 776.21484,58.7594 777.18634,58.7594 L 797.8425,58.7594 L 790.22982,83.77932 L 777.58449,83.77932 L 777.58449,157.51722 C 767.13696,159.68317 755.28793,161.1643 744.63336,162.67728 L 744.69707,83.77932 L 709.32517,83.77932 L 709.29332,157.29425 C 698.84579,159.25317 677.10664,161.86505 677.10664,161.86505 C 677.10664,161.86505 677.77554,109.43629 677.12257,83.77932 C 670.19471,83.55635 657.27863,83.77932 657.27863,83.77932 L 664.7002,58.7594 C 664.7002,58.7594 673.04549,58.91866 676.45367,58.7594 C 675.35477,46.57592 678.84259,35.49134 688.62122,28.30867 C 699.27579,20.91895 713.41818,20.26598 726.70056,21.36488"
     id="path973"
     style="fill:#005aaa;fill-opacity:1;fill-rule:nonzero;stroke:none" />
  <path
     d="M 618.14817,22.01785 L 629.67868,48.32779 L 558.3297,48.32779 L 569.87613,22.06563 L 618.14817,22.01785"
     id="path977"
     style="fill:#005aaa;fill-opacity:1;fill-rule:nonzero;stroke:none" />
  <path
     d="M 960.71886,77.67962 L 960.71886,158.37723 C 950.06429,159.68317 939.0912,161.67394 928.19774,162.75691 L 928.19774,26.54087 C 928.19774,26.54087 950.38281,23.00527 960.83034,21.9223 L 960.71886,77.67962"
     id="path981"
     style="fill:#005aaa;fill-opacity:1;fill-rule:nonzero;stroke:none" />
  <path
     d="M 407.39793,57.03937 C 405.64605,66.81801 402.39713,76.59664 399.99228,86.16823 C 391.29663,84.43229 381.08799,85.53119 374.76532,92.26794 C 369.11155,98.14467 366.72263,105.96439 368.68155,114.21412 C 370.40157,120.98272 375.8483,127.27353 382.17096,130.10838 C 387.39473,132.29026 394.56148,132.4973 399.99228,130.96839 L 407.82793,159.68317 C 389.99069,166.19695 369.55748,160.78207 355.62213,149.25157 C 339.09083,134.44028 333.66002,112.04817 339.96677,91.16903 C 346.06647,71.59584 366.29263,55.94047 386.72583,54.63453 C 394.13147,54.1886 400.86822,55.06454 407.39793,57.03937"
     id="path985"
     style="fill:#005aaa;fill-opacity:1;fill-rule:nonzero;stroke:none" />
  <path
     d="M 594.48197,54.96898 C 564.50903,54.96898 540.23763,79.24038 540.23763,109.19739 C 540.23763,139.15441 564.50903,163.44173 594.48197,163.44173 C 624.42306,163.44173 648.71039,139.15441 648.71039,109.19739 C 648.71039,79.24038 624.42306,54.96898 594.48197,54.96898 z M 594.48197,133.13434 C 581.24737,133.13434 570.54502,122.40014 570.54502,109.19739 C 570.54502,95.97872 581.24737,85.24452 594.48197,85.24452 C 607.70064,85.24452 618.41892,95.97872 618.41892,109.19739 C 618.41892,122.40014 607.70064,133.13434 594.48197,133.13434"
     id="path989"
     style="fill:#005aaa;fill-opacity:1;fill-rule:nonzero;stroke:none" />
  <path
     d="M 848.48754,135.09325 C 846.97456,134.0262 844.60157,133.67583 843.646,131.22321 L 910.04197,98.78172 C 910.04197,93.55795 907.20712,88.98716 905.02524,84.43229 C 898.73443,72.26474 886.13687,62.45425 873.71451,58.55236 C 854.14131,52.45265 833.48514,58.10642 819.34276,71.81881 C 805.21629,85.94527 800.6455,106.8244 806.28334,126.19056 C 812.38305,145.98671 832.1792,162.29505 852.83537,163.80803 C 871.97856,165.35287 889.36987,158.17019 900.69334,142.94483 C 894.16363,137.08402 888.07986,130.53838 881.55015,125.10758 C 873.06153,134.67917 860.67102,139.67997 848.48754,135.09325 z M 838.91595,89.43309 C 847.38864,82.71227 860.67102,78.77852 870.65669,84.65525 C 873.26857,86.16823 876.11935,87.92011 877.85529,90.51606 C 862.8529,98.14467 847.61161,105.53439 832.1792,112.70114 C 830.22029,103.78252 832.83217,95.51686 838.91595,89.43309"
     id="path993"
     style="fill:#005aaa;fill-opacity:1;fill-rule:nonzero;stroke:none" />
  <path
     d="M 324.7414,30.69758 C 324.77325,30.8887 306.41045,49.37891 306.47415,49.20373 C 297.12552,43.96404 286.88503,38.7562 274.94045,41.57512 C 269.71668,42.7218 264.26995,46.14591 262.75697,51.59264 C 261.88103,57.03937 264.26995,62.04017 268.63371,65.2891 C 287.76097,79.65445 320.39357,80.7215 325.39437,110.08926 C 327.35328,127.4965 319.08763,142.4989 305.16821,152.72346 C 284.94205,167.08881 252.75537,163.60099 232.95921,150.76455 C 228.16545,147.27673 222.95762,143.37483 219.4698,138.15107 L 238.31039,119.53344 C 249.84089,129.74208 265.79886,137.29106 281.02422,130.31542 C 285.59502,128.57947 289.73581,123.80164 289.94285,118.57787 C 290.80286,111.84113 285.80206,106.61736 280.37125,103.14547 C 260.57509,93.78092 229.69436,86.82121 227.52841,58.7594 C 227.06655,43.96404 233.38922,30.49054 246.44863,22.6549 C 264.92292,11.77736 292.5388,10.26438 311.47495,20.91895 C 316.25278,23.7538 320.82358,26.57272 324.7414,30.69758 z"
     id="path999"
     style="fill:none;stroke:#005aaa;stroke-width:0.23889171;stroke-linecap:butt;stroke-linejoin:miter;stroke-miterlimit:4;stroke-dasharray:none;stroke-opacity:1" />
  <path
     d="M 26.42938,152.10234 C 26.42938,152.10234 93.23943,98.79764 99.14802,10.42364 L 132.64063,0.11945 C 132.64063,0.11945 133.78731,123.54682 227.3373,161.57838 L 192.28392,180.1323 C 192.28392,180.1323 71.48436,126.68427 0.11945,202.49256 C 0.11945,202.49256 64.93873,114.50079 176.62855,153.44013 L 179.95711,150.44603 C 179.95711,150.44603 120.15456,120.96679 113.84782,39.04287 L 111.26779,39.61621 C 111.26779,39.61621 102.97028,110.00963 22.81416,174.71742 L 26.42938,152.10234"
     id="path1093"
     style="fill:#005aaa;fill-opacity:1;fill-rule:nonzero;stroke:none" />
</svg>
